<svg width="883" height="303" viewBox="0 0 883 303" fill="none" xmlns="http://www.w3.org/2000/svg">
<g clip-path="url(#clip0_2_38)">
<path d="M531.08 150.226C526.887 160.608 524.89 171.79 525.29 182.971C525.29 186.365 525.09 190.159 528.684 191.956C532.278 193.753 535.273 191.157 537.869 189.161C546.654 182.971 553.043 174.585 559.233 165.999C560.431 164.602 560.83 162.805 560.431 161.008C558.234 154.818 563.226 155.617 566.221 155.217C571.013 154.618 571.213 158.412 570.614 161.607C569.216 169.194 567.619 176.781 566.021 185.567C570.414 178.978 573.808 172.988 578.001 167.597C583.991 159.61 590.381 152.622 600.963 149.427C605.755 148.029 610.148 145.633 615.339 145.833C618.533 146.033 618.334 143.238 618.933 141.241C622.327 131.457 625.122 129.261 634.706 129.66C632.909 133.654 631.312 137.647 629.515 141.441C627.718 144.835 628.716 146.033 632.51 145.833C642.693 145.434 652.876 146.432 663.458 144.835C662.26 150.226 658.866 152.222 653.874 152.222C645.888 152.222 637.901 152.422 629.914 152.222C627.518 151.823 625.122 153.42 624.723 155.816C624.723 156.016 624.723 156.016 624.723 156.216C622.327 164.402 620.53 172.788 619.532 181.374C619.332 183.77 619.332 186.166 619.731 188.562C620.929 195.35 625.721 197.946 632.111 195.35C636.903 193.354 641.096 189.76 643.891 185.367C646.686 188.761 645.089 191.756 642.893 194.352C638.7 199.344 632.909 203.137 626.52 204.735C617.735 207.131 610.747 200.941 609.748 190.159C608.75 180.575 611.346 171.59 613.542 162.405C613.941 160.409 614.74 158.612 615.139 156.615C615.339 155.018 617.735 152.222 613.941 152.422C611.945 152.422 607.951 149.227 607.951 155.617C607.951 160.608 602.361 163.204 597.968 161.008C593.575 158.811 590.58 161.407 587.785 164.202C577.402 174.186 569.815 186.765 565.422 200.542C564.025 204.735 561.828 205.533 558.634 205.134C554.64 204.735 554.241 201.74 554.84 198.545C556.038 192.156 557.036 185.766 558.634 177.78C552.644 183.77 548.65 189.161 543.26 193.354C539.666 196.548 535.473 198.944 531.08 200.741C523.093 203.337 517.702 200.342 516.105 191.956C515.107 186.365 515.107 180.575 515.905 174.984C510.714 183.57 506.321 190.958 499.932 196.748C497.336 199.344 494.541 201.54 491.346 203.337C483.16 207.73 476.372 204.735 473.976 195.75C472.977 192.156 472.778 188.362 473.177 184.768C468.185 189.56 462.595 193.953 456.804 197.946C449.417 202.538 441.63 205.933 432.645 205.533C425.457 205.733 418.868 201.141 416.472 194.352C408.485 174.984 424.658 150.625 445.423 150.425C451.214 150.425 456.205 151.623 459.001 157.214C461.397 162.006 459.6 168.196 454.808 172.988C448.019 179.577 439.034 183.37 429.45 183.77C426.056 183.969 425.057 184.968 425.856 188.362C427.254 195.55 432.445 199.144 440.432 197.946C452.212 195.949 460.997 188.562 468.984 180.575C472.778 176.781 475.972 172.389 478.568 167.796C486.155 153.82 499.533 145.434 516.504 153.82C517.902 154.419 519.1 155.417 520.498 153.62C523.093 150.026 526.887 149.826 531.08 150.226ZM483.16 184.169C482.961 190.958 484.159 194.152 487.153 195.151C492.145 196.748 494.94 192.954 497.736 189.959C504.924 182.372 510.315 173.587 516.105 165.001C516.704 164.003 517.503 163.204 516.504 161.806C511.513 155.018 496.338 154.618 490.947 161.207C485.756 167.996 482.961 175.983 483.16 184.169ZM450.016 161.008C450.016 155.816 446.821 153.42 441.829 155.018C434.841 157.214 431.047 162.605 428.252 168.994C427.054 171.79 424.458 175.983 426.255 177.78C428.452 179.976 432.445 177.58 435.64 176.582C444.625 173.587 450.016 167.597 450.016 161.008Z" fill="white"/>
<path d="M403.893 123.87C395.108 135.45 390.715 148.428 388.319 162.804C392.113 163.004 394.709 161.207 397.903 160.009C397.304 165.4 395.108 168.595 389.517 169.194C387.72 169.393 386.323 169.393 386.323 171.59C385.724 178.378 384.326 184.967 386.123 191.756C387.92 198.145 390.715 199.942 396.905 198.544C398.103 198.145 399.7 196.947 400.499 198.744C401.098 200.142 399.9 201.34 398.902 202.338C393.111 208.727 380.333 205.932 377.138 197.346C374.343 189.759 375.141 181.972 375.94 174.385C376.14 172.788 376.539 171.19 376.739 169.194C368.952 169.194 361.365 169.194 353.777 169.194C351.381 169.194 350.583 170.192 350.383 172.388C348.386 183.769 345.99 194.95 344.193 206.531C343.395 211.922 339.202 211.123 336.007 211.123C331.415 211.323 333.411 207.529 333.811 205.333C335.807 194.551 338.004 183.769 340.4 173.187C341.198 169.793 340.2 168.994 337.005 169.393C332.812 169.992 328.819 171.19 325.025 172.788C326.623 166.598 330.217 163.403 335.807 163.403C341.398 163.403 343.395 161.207 343.794 156.016C344.393 151.423 345.391 147.031 346.589 142.638C346.989 140.442 346.989 138.645 343.794 139.244C336.406 140.641 331.814 137.646 330.416 129.261C338.203 133.853 346.19 131.457 354.177 130.858C357.97 130.458 359.168 130.858 358.17 135.051C356.173 143.037 354.776 151.024 352.979 159.011C352.38 161.806 352.579 163.403 356.173 163.204C361.964 162.804 367.754 162.804 373.544 163.204C377.138 163.403 378.336 162.006 379.135 158.811C380.932 149.826 383.927 141.24 387.72 132.854C390.715 125.667 395.907 122.871 403.893 123.87Z" fill="white"/>
<path d="M334.409 78.9447C335.607 75.3507 337.005 72.156 340.599 71.7567C344.992 71.3574 345.79 68.7617 346.389 65.3674C347.388 59.1778 348.586 52.7885 350.183 46.5988C351.381 42.2062 349.384 41.6072 345.79 42.0065C341.398 42.6055 337.205 44.4025 333.611 46.7985C336.007 38.4125 338.403 36.6156 346.389 36.0166C362.762 34.6189 379.334 36.8152 396.106 33.4209C393.111 40.2095 387.92 41.6072 382.13 41.8069C376.739 42.0065 371.348 42.0065 365.957 41.8069C362.363 41.6072 360.566 42.8052 359.967 46.3992C358.569 54.3858 356.972 62.3724 355.374 70.958C363.96 71.7567 372.745 71.1577 381.331 69.3607C379.734 74.7517 376.539 76.948 371.747 77.1477C367.155 77.3473 362.562 77.7467 357.97 77.547C354.975 77.547 353.777 78.5453 353.378 81.3407C351.381 93.5203 347.987 105.301 346.589 117.68C345.99 122.671 341.398 121.873 338.403 122.072C334.409 122.272 335.807 118.678 336.206 116.681C338.003 106.299 340.2 95.9162 342.396 85.7333C344.393 75.75 344.193 77.1477 334.409 78.9447Z" fill="white"/>
<path d="M363.561 276.814C362.962 283.803 358.569 287.397 353.378 289.992C348.386 292.388 344.393 290.192 340.998 286.798C334.41 280.408 330.616 272.222 327.022 264.036C325.824 261.64 325.225 259.244 321.631 260.042C318.037 260.841 318.636 258.445 319.435 256.448C320.832 252.455 324.626 250.059 328.819 250.658C336.207 250.658 342.995 246.265 346.389 239.676C349.384 232.089 346.19 225.7 337.804 224.103C320.832 221.108 307.055 227.097 295.275 239.277C294.077 240.475 293.079 242.072 291.881 243.47C288.486 238.878 289.085 234.485 294.077 230.292C303.861 221.707 315.841 218.113 328.619 217.114C333.611 216.715 338.603 216.915 343.394 217.913C349.384 219.311 354.576 221.507 356.373 227.896C358.369 234.685 355.973 241.873 350.383 246.066C346.589 249.26 342.396 251.856 337.604 253.653C333.811 255.051 334.21 256.648 335.608 259.843C337.804 264.635 340.399 269.427 343.394 274.019C350.183 284.402 353.777 284.801 363.561 276.814Z" fill="white"/>
<path d="M668.85 186.565C665.655 180.376 661.262 174.785 659.066 167.996C656.87 160.609 658.667 154.818 664.657 150.026C667.851 147.431 670.647 147.431 673.442 150.226C676.237 153.021 676.038 157.015 673.442 158.612C664.657 163.803 669.449 168.995 672.444 174.585C677.036 182.772 676.836 182.772 684.823 177.381C690.414 173.387 695.805 168.595 700.397 163.404C701.795 161.807 702.993 160.209 705.189 162.006C707.385 163.803 704.989 165.201 704.191 166.399C698.201 173.387 691.212 179.377 683.226 183.97C680.83 185.367 679.632 186.366 680.43 189.76C683.226 203.138 669.049 215.317 656.071 211.324C652.477 210.326 649.482 208.329 648.684 204.336C647.885 200.742 650.081 198.346 652.677 196.149C657.469 192.156 663.259 189.76 668.85 186.565ZM672.444 196.549C672.444 194.752 672.643 192.555 670.846 191.757C669.049 190.958 668.051 192.755 666.653 193.554C663.459 195.151 660.663 197.347 658.268 199.943C655.672 203.337 656.67 205.733 660.863 206.532C667.252 207.93 672.444 203.337 672.444 196.549Z" fill="white"/>
<path d="M581.995 34.4194C578.601 43.2047 572.212 47.3977 565.623 51.1913C564.025 52.1897 562.228 51.99 562.029 49.7937C561.829 47.5974 561.03 44.203 564.425 43.4044C570.415 41.8071 575.806 38.4127 581.995 34.4194Z" fill="white"/>
<path d="M706.786 35.6177C703.392 43.4046 697.801 46.9986 692.41 50.5926C690.813 51.5909 688.417 53.1883 687.418 50.5926C686.42 48.3963 686.42 44.403 689.016 43.804C694.806 42.007 699.798 38.6127 706.786 35.6177Z" fill="white"/>
<path d="M680.829 250.258C679.631 249.659 678.433 248.461 677.235 250.258C676.436 251.456 675.638 252.654 674.839 253.652C666.653 265.432 657.069 275.615 643.891 282.005C639.299 284.401 633.908 285.199 628.716 284.201C623.525 283.203 620.131 278.411 620.53 273.219C620.929 268.427 625.522 270.424 628.117 270.025C636.703 268.827 644.49 264.833 650.68 258.644C654.673 254.451 656.27 249.259 653.675 243.868C651.279 238.677 646.686 237.28 641.295 237.28C627.918 237.08 615.938 245.665 611.944 258.444C609.748 264.833 605.954 270.624 600.963 275.216C597.768 278.211 593.974 281.805 589.582 280.008C584.59 278.011 585.788 272.62 585.788 268.228C585.788 259.442 587.984 250.857 590.181 242.471C590.78 239.875 591.379 237.28 587.785 237.28C585.189 237.28 581.595 235.283 580.397 240.474C577.003 256.048 568.218 268.827 557.036 279.808C554.64 282.204 551.246 284.201 547.852 282.204C544.457 280.208 545.056 276.414 545.256 273.02C546.055 264.234 548.85 255.848 551.046 247.462C551.845 244.268 553.043 240.874 548.051 240.275C544.258 239.875 540.464 238.877 541.063 245.266C541.263 248.461 540.264 251.655 538.268 254.251C533.476 261.439 528.085 268.028 522.095 274.218C517.902 278.61 512.91 282.005 507.519 284.401C496.937 288.394 487.952 283.402 486.355 272.221C484.558 262.038 488.551 251.855 496.538 245.665C504.524 239.077 511.712 241.872 513.909 251.855C517.902 250.657 521.895 249.06 521.696 244.268C521.496 239.077 516.904 237.879 512.711 237.28C511.912 237.08 511.113 237.08 510.315 237.08C498.734 236.481 489.949 241.872 482.96 250.457C477.17 257.446 470.381 263.236 462.395 267.629C461.197 268.228 459.799 270.025 458.801 268.228C455.606 263.236 452.611 258.045 450.415 252.454C449.217 249.459 454.209 249.06 455.407 246.664C455.606 246.065 456.205 245.665 456.405 245.266C458.002 242.471 458.601 239.676 455.806 237.28C453.011 234.884 450.615 234.285 447.42 236.88C443.427 240.275 440.432 244.068 440.432 249.459C440.432 250.657 440.232 251.855 439.633 252.853C431.047 265.432 420.864 276.214 406.888 282.604C402.495 284.8 397.703 285.199 392.911 284.201C387.92 283.003 384.525 278.211 384.725 273.02C385.324 268.228 389.916 270.424 392.512 270.025C401.297 268.427 409.084 265.233 415.074 258.644C418.868 254.451 420.864 249.459 418.069 243.868C415.673 238.677 410.881 237.28 405.69 237.28C386.522 237.08 370.748 256.447 374.542 276.214C376.738 287.995 385.124 293.785 397.104 291.988C404.092 290.79 410.482 288.394 416.472 284.401C426.854 277.612 435.839 268.627 442.828 258.244C445.423 262.437 447.42 266.431 450.016 270.224C452.012 273.02 451.014 274.218 448.418 275.416C443.227 277.612 438.435 280.607 434.442 284.401C429.65 289.392 430.848 294.983 437.037 297.978C448.019 303.169 464.791 293.386 463.593 281.605C462.794 273.619 466.188 270.823 471.579 267.828C473.376 266.83 474.974 265.632 476.571 264.234C476.571 264.833 476.771 265.632 476.771 266.231C475.573 276.015 477.37 284.8 486.355 290.391C495.34 295.981 504.325 293.785 512.91 288.793C520.298 284.201 527.086 278.411 532.677 271.622C533.675 270.424 534.274 268.228 536.87 268.827C536.67 270.823 536.271 272.82 536.071 274.617C535.273 281.006 535.872 287.396 542.261 290.79C548.65 294.184 554.041 290.99 559.033 286.797C565.822 280.607 571.412 273.219 575.605 265.033C578.001 268.827 576.604 271.023 577.802 277.013C580.198 288.993 586.787 292.587 596.77 287.196C599.964 285.199 602.959 282.803 605.755 280.208C607.552 278.411 608.55 275.815 611.345 275.016C613.542 288.194 621.928 294.384 634.906 291.589C657.269 286.996 671.445 271.622 682.626 253.053C681.827 252.254 682.626 251.056 680.829 250.258ZM623.525 256.048C625.921 250.258 629.515 245.066 635.505 242.671C641.495 240.275 645.089 242.471 645.089 248.061C645.089 254.65 639.698 260.64 630.713 263.835C627.718 265.033 623.525 267.03 621.329 264.833C619.731 263.036 622.327 259.043 623.525 256.048ZM386.921 256.847C389.317 250.857 392.712 245.466 399.101 242.87C405.091 240.275 409.084 242.87 408.884 248.461C408.685 255.05 402.695 261.239 393.71 264.035C390.914 264.833 387.121 266.83 385.524 265.033C383.926 263.236 385.923 259.442 386.921 256.847ZM442.828 293.785C439.034 292.986 437.636 290.79 440.032 287.396C443.027 283.602 447.021 280.807 451.413 279.209C455.407 277.812 453.41 282.005 454.408 283.203C454.608 290.59 449.417 294.983 442.828 293.785Z" fill="white"/>
<path d="M319.434 236.481C316.04 254.451 312.247 272.62 309.052 290.79C308.253 294.983 307.455 297.179 303.262 297.778C298.07 298.577 297.072 297.778 298.07 292.786C301.265 276.613 304.659 260.441 308.054 244.268C308.453 242.071 308.852 239.875 309.052 237.679C309.451 233.685 313.045 230.89 317.038 231.289C317.238 231.289 317.438 231.289 317.637 231.289C320.033 232.288 319.834 234.284 319.434 236.481Z" fill="white"/>
<path d="M881.494 66.7654C878.898 64.5691 877.9 66.9651 876.303 68.3627C867.517 77.148 857.734 84.5356 846.952 90.5256C847.95 82.9383 848.749 76.549 849.747 69.96C850.546 65.3677 851.544 60.9751 852.343 56.3828C852.742 54.3861 855.138 51.9901 852.343 50.5925C849.547 49.1948 845.754 49.5942 844.755 52.1898C842.559 57.7804 839.165 55.9835 835.571 54.7855C833.574 54.1865 831.378 53.7871 829.181 53.7871C817.002 53.5875 804.223 63.3711 799.032 77.3477C797.035 82.539 794.24 87.331 790.646 91.7236C787.851 95.1179 784.856 99.7102 780.064 98.3126C775.272 96.9149 776.669 91.3243 776.07 87.331C774.872 79.1447 776.669 70.559 774.273 62.3727C771.877 54.1865 765.688 51.5908 758.1 55.7838C755.105 57.5808 752.71 59.7771 750.513 62.3727C744.523 69.5607 739.532 77.5473 735.538 86.133C734.141 85.3343 734.34 82.539 734.34 82.539C734.74 76.7487 735.339 70.9584 735.738 65.1681C735.938 61.7738 736.337 57.3811 731.345 57.9801C728.151 58.1798 722.56 58.3794 725.954 64.7687C726.154 65.5674 726.154 66.3661 725.755 66.9651C717.968 79.3443 709.781 91.3243 697.003 99.3109C694.407 100.908 691.412 102.106 688.617 100.309C685.822 98.5122 686.221 95.1179 686.82 92.1229C688.417 84.1363 690.014 76.1497 691.412 68.1631C692.011 64.9684 692.011 61.1748 687.219 61.1748C684.224 61.1748 678.833 60.1764 681.03 66.7654C681.229 67.7637 680.83 68.7621 680.231 69.5607C674.64 78.1463 669.649 86.9316 662.66 94.3192C659.066 98.1129 654.674 101.507 649.482 98.9116C644.291 96.3159 645.888 90.9249 646.687 86.5323C648.484 75.5507 650.68 64.5691 652.877 53.5875C654.873 43.4045 656.67 33.4212 658.667 22.4396C650.68 26.6326 641.296 26.6326 633.309 22.6393C632.511 25.2349 633.11 27.8306 634.907 29.8273C638.101 33.6209 642.893 32.8222 647.086 33.6209C646.288 37.4145 645.489 41.0085 645.09 44.6025C642.893 60.9751 638.301 76.549 626.92 89.1279C624.125 92.1229 621.729 95.7169 617.935 97.9132C615.14 99.5106 611.945 100.709 608.95 98.7119C605.955 96.7152 605.556 93.3209 605.955 90.1263C606.754 84.7353 607.752 79.544 608.751 74.153C611.945 57.1814 615.14 40.2099 618.534 22.24C609.549 26.8323 601.163 26.2333 592.777 22.4396C593.376 30.0269 595.573 32.8222 602.761 33.0219C607.153 33.0219 606.954 34.4196 606.155 37.8139C604.558 44.0035 603.36 50.1931 602.361 56.5824C600.165 75.351 587.386 87.1313 574.009 98.3126C571.213 100.709 567.619 102.506 564.025 100.309C560.432 98.1129 561.629 93.9199 562.228 90.5256C563.626 83.138 565.423 75.7504 566.421 68.1631C567.22 61.3744 565.623 60.1764 559.034 61.5741C549.849 63.3711 540.465 61.9734 530.681 62.5724C532.079 55.9834 533.277 50.1931 534.874 44.4028C535.873 39.2115 538.269 34.6192 542.062 30.8256C546.455 26.6326 551.846 26.8323 555.041 31.0252C556.039 32.2232 555.639 35.2182 558.235 34.2199C560.431 33.4212 562.029 31.8239 562.628 29.6276C563.227 27.6309 562.228 25.4346 560.431 24.4363C557.636 22.4396 554.242 21.641 550.848 22.24C541.663 23.0386 533.676 28.4296 529.084 36.4162C525.29 43.0052 523.094 50.3928 522.096 57.7804C521.497 60.9751 520.698 62.5724 516.904 62.5724C511.114 62.3727 507.121 64.9684 507.121 71.757C510.914 70.3594 514.508 68.3627 519.5 69.5607C512.911 78.945 507.919 88.5289 499.733 96.1162C496.538 99.1112 492.545 101.308 488.352 98.9116C484.159 96.5156 484.758 92.1229 485.557 88.1296C487.554 77.148 489.55 66.1664 491.547 55.1848C493.543 44.6025 495.54 34.0202 497.537 22.6393C489.55 26.8323 479.966 26.8323 471.98 22.6393C472.179 30.6259 474.176 32.6226 482.762 33.2216C485.557 33.4212 486.156 33.8206 485.557 36.6159C483.76 45.0018 481.763 53.3878 480.366 61.7738C478.169 75.351 469.783 84.7353 460.599 93.5206C458.003 95.9166 454.609 98.3126 450.815 96.5156C447.021 94.7186 447.62 90.9249 447.421 87.5306C447.021 77.5473 449.417 68.1631 452.013 58.7788C452.612 56.3828 452.612 53.9868 449.417 54.1865C446.822 54.3861 443.228 52.1898 442.03 57.3811C438.635 72.955 429.85 85.3343 419.068 96.5156C416.473 99.1112 413.078 101.308 409.484 99.5106C405.89 97.7136 406.689 93.7203 406.889 90.3259C407.687 81.5406 410.483 73.1547 412.679 64.7687C413.478 61.9734 414.875 58.1798 409.684 57.5808C406.09 57.1814 402.097 56.1831 402.895 62.5724C403.095 64.3694 402.097 66.3661 401.697 68.3627C399.9 76.7487 397.904 85.1346 396.706 93.5206C395.907 99.1112 397.305 104.303 402.496 107.697C407.687 111.091 412.879 109.294 417.471 105.9C423.062 101.707 427.853 96.3159 431.447 90.3259C433.444 87.331 435.241 84.336 437.238 81.1413C438.436 85.9333 438.036 90.3259 438.635 94.5189C440.233 105.9 447.82 109.494 458.003 103.903C461.397 101.907 464.592 99.3109 467.188 96.3159C469.783 93.3209 472.379 90.1263 475.574 86.3326C475.374 89.9266 475.374 93.3209 475.574 96.9149C476.772 107.298 485.357 111.89 494.741 107.298C499.334 104.902 503.527 101.507 506.721 97.5139C509.716 93.9199 512.711 90.3259 515.906 86.5323C516.505 88.7286 516.305 90.9249 515.706 92.9216C513.909 102.705 512.112 112.489 510.515 122.272C509.916 125.866 511.114 128.861 515.507 128.262C518.901 127.863 522.495 127.464 520.698 122.272C520.299 120.675 520.498 119.078 520.898 117.48C523.693 102.506 526.488 87.7303 529.084 72.7554C529.683 69.5607 531.081 68.9617 533.876 69.1614C540.066 69.1614 546.255 69.361 552.445 68.9617C556.039 68.762 557.037 69.5607 556.238 73.1547C554.841 79.9433 553.443 86.732 552.445 93.7203C550.848 105.301 559.633 112.089 570.415 107.897C575.606 105.7 580.198 102.506 583.992 98.3126C587.985 94.1196 591.779 89.7269 596.371 84.7353C596.371 88.7286 596.172 91.9233 596.371 94.9182C596.97 107.298 607.353 112.688 617.736 105.9C620.93 103.704 624.125 101.108 626.72 98.1129C629.915 94.7186 632.71 91.1246 636.105 87.1313C637.502 89.3276 636.504 91.1246 636.504 92.7219C636.704 98.7119 638.101 104.303 643.692 107.497C649.283 110.692 654.873 108.096 659.665 104.702C665.456 100.11 670.647 94.7186 674.84 88.7286C675.838 87.5306 676.038 85.1346 678.833 85.534C678.434 87.1313 678.035 88.7286 677.835 90.1263C676.837 96.3159 676.238 102.705 682.427 106.898C689.016 111.291 695.206 108.496 700.796 104.902C707.785 100.11 713.775 94.1196 718.567 87.331L725.954 77.3477C725.555 82.9383 725.156 86.732 724.956 90.5256C724.557 95.1179 724.157 99.7102 723.958 104.303C723.558 106.499 725.156 108.695 727.552 109.095C727.751 109.095 727.951 109.095 728.35 109.095C730.147 109.095 732.344 109.494 732.943 106.699C736.537 92.9216 745.122 81.7403 752.909 70.3594C755.305 66.9651 758.1 61.9734 762.892 63.3711C767.684 64.9684 766.287 70.559 766.486 74.5524C766.287 81.94 766.886 89.3276 767.684 96.7152C769.481 108.096 777.268 111.291 786.653 104.502C790.646 101.507 793.441 97.5139 797.035 93.9199C801.827 103.304 807.817 105.7 817.002 101.108C825.388 96.9149 832.376 90.3259 836.968 81.94C838.366 82.1396 837.767 83.5373 838.166 84.336C839.165 94.3193 835.171 100.509 825.787 104.303C817.601 107.497 810.014 112.089 803.225 117.48C799.032 120.875 797.035 125.267 798.433 130.658C799.631 135.65 803.425 138.046 808.217 139.244C817.401 141.64 825.587 139.244 832.975 133.853C843.158 126.465 846.353 115.883 846.353 104.103C846.153 100.309 848.15 96.7152 851.544 95.1179C862.126 88.7286 871.71 80.9417 880.096 71.757C880.895 70.3594 884.489 69.361 881.494 66.7654ZM832.975 124.269C829.581 131.856 823.191 135.65 815.405 134.452C808.217 133.454 805.821 127.663 810.213 121.873C815.405 114.885 823.191 111.69 830.379 107.497C832.176 106.499 833.774 105.7 836.569 104.303C836.17 111.69 835.77 118.079 832.975 124.269ZM836.968 72.356C832.176 79.9433 825.987 86.732 818.799 91.9233C816.003 93.7202 813.009 96.1162 809.415 93.9199C805.821 91.7236 806.42 88.1296 806.819 84.7353C807.618 76.3493 811.611 68.5624 818 62.9717C820.596 60.5758 824.19 59.1781 827.784 59.1781C829.581 59.5774 831.378 59.9768 832.975 60.5758C840.562 63.1714 841.361 65.7671 836.968 72.356Z" fill="white"/>
<path d="M176.674 159.81C176.674 159.81 186.658 97.9135 239.569 100.909C239.569 100.909 308.454 106.898 292.48 180.775C286.89 196.349 276.906 209.926 263.529 219.71C263.529 219.71 205.626 268.628 208.621 299.576" stroke="white" stroke-width="1.99666" stroke-miterlimit="10"/>
<path d="M185.06 160.209C185.06 160.209 144.128 104.702 92.215 138.246C92.215 138.246 69.6528 154.219 72.2485 193.753C72.2485 193.753 75.8424 229.293 108.188 244.268C108.188 244.268 134.145 254.85 152.115 257.845C152.115 257.845 204.627 267.429 219.602 292.787" stroke="white" stroke-width="1.99666" stroke-miterlimit="10"/>
<path d="M183.462 155.416C183.462 155.416 159.502 122.871 125.959 122.272C125.959 122.272 58.4716 121.074 75.4432 201.14C75.4432 201.14 86.0254 248.261 151.915 263.436C151.915 263.436 196.64 276.214 207.023 300.973C207.023 300.973 198.437 264.434 239.968 232.487L271.914 211.522C271.914 211.522 301.265 198.944 303.661 159.609C303.661 159.609 304.859 108.695 249.352 100.708C249.352 100.708 190.251 94.9178 183.462 155.416Z" stroke="white" stroke-width="3.99331" stroke-miterlimit="10"/>
<path d="M184.461 144.636C184.461 144.636 145.127 97.1151 99.6033 121.874C99.6033 121.874 58.8715 142.439 81.6334 199.943C81.6334 199.943 96.808 233.287 144.328 247.463L166.092 253.054C166.092 253.054 206.424 263.037 220.601 281.007C220.601 281.007 213.612 255.849 245.16 233.087C245.16 233.087 283.895 204.136 286.69 169.993C286.69 169.993 298.67 103.105 249.552 98.5128C249.552 98.7124 194.644 81.7409 184.461 144.636Z" stroke="white" stroke-width="3.99331" stroke-miterlimit="10"/>
<path d="M36.3085 94.7188C36.3085 94.7188 6.75801 95.7171 7.75634 118.679C7.75634 118.679 5.16069 149.227 21.9326 163.603C27.1239 169.593 34.7112 173.387 42.6978 173.587C48.8875 173.387 54.6778 170.192 58.2717 165.001C64.8607 158.013 68.4547 148.628 68.854 139.045V120.076C68.854 120.276 69.2534 95.7171 36.3085 94.7188Z" stroke="white" stroke-width="3.99331" stroke-miterlimit="10"/>
<path d="M97.207 21.042C97.207 21.042 70.6514 24.636 68.6548 56.9818V81.94C68.6548 81.94 69.6531 112.489 97.207 116.882C97.207 116.882 131.15 117.88 136.741 71.9567V60.7755C136.741 60.7755 131.15 24.037 97.207 21.042Z" stroke="white" stroke-width="3.99331" stroke-miterlimit="10"/>
<path d="M184.062 4.86914C184.062 4.86914 161.101 6.8658 159.503 31.824C158.106 43.2049 158.106 54.7855 159.503 66.3662C159.503 66.3662 168.488 94.7187 206.425 94.9183C206.425 94.9183 235.975 96.5157 235.376 64.9685C235.576 64.7688 234.977 11.0588 184.062 4.86914Z" stroke="white" stroke-width="3.99331" stroke-miterlimit="10"/>
<path d="M280.5 21.0421C280.5 21.0421 248.553 28.6294 251.947 56.9819C251.947 56.9819 254.543 94.1197 292.479 100.908C292.479 100.908 312.047 100.908 313.045 75.5508C312.845 75.3511 315.441 11.4581 280.5 21.0421Z" stroke="white" stroke-width="3.99331" stroke-miterlimit="10"/>
<path d="M32.715 99.1114C32.715 99.1114 1.76686 101.707 3.76352 124.469C3.76352 124.469 2.56552 155.018 20.9348 168.595C26.9247 174.385 34.9114 177.78 43.2973 177.58C49.6866 177.181 55.6766 173.786 59.2706 168.395C65.8595 161.207 69.2538 151.623 69.0542 141.84L68.0559 122.872C68.2555 122.872 67.4569 98.3127 32.715 99.1114Z" stroke="white" stroke-width="1.99666" stroke-miterlimit="10"/>
<path d="M84.4281 25.235C84.4281 25.235 59.4699 34.8189 65.2602 67.9634L71.2502 93.1213C71.2502 93.1213 79.4364 123.67 107.19 121.873C107.19 121.873 140.534 115.085 134.943 67.5641L132.348 56.5825C132.348 56.5825 118.172 20.6427 84.4281 25.235Z" stroke="white" stroke-width="1.99666" stroke-miterlimit="10"/>
<path d="M198.238 3.27177C198.238 3.27177 174.878 -1.32054 166.492 22.839C161.899 33.6209 158.505 45.2016 156.908 56.7822C156.908 56.7822 157.906 87.1313 195.443 97.9133C195.443 97.9133 224.195 107.697 232.381 76.5491C232.381 76.5491 246.957 23.438 198.238 3.27177Z" stroke="white" stroke-width="1.99666" stroke-miterlimit="10"/>
<path d="M281.897 21.0417C281.897 21.0417 246.157 26.0333 248.154 54.7852C248.154 54.7852 248.354 92.1227 289.684 101.507C289.684 101.507 311.049 103.104 314.044 77.7467C313.844 77.9464 320.832 14.2531 281.897 21.0417Z" stroke="white" stroke-width="1.99666" stroke-miterlimit="10"/>
</g>
<defs>
<clipPath id="clip0_2_38">
<rect width="882.123" height="302.094" fill="white" transform="translate(0.568359 0.875977)"/>
</clipPath>
</defs>
</svg>
